<svg width="1533" height="184" viewBox="0 0 1533 184" fill="none" xmlns="http://www.w3.org/2000/svg">
<path d="M31.6158 183.84V2.53365e-05L0 0V183.84L31.6158 183.84Z" fill="#F3BD00"/>
<path d="M68.0466 73.185V2.53365e-05L184.361 63.7691C181.73 66.4942 178.983 69.6956 176.64 73.185H68.0466Z" fill="#F3BD00"/>
<path d="M184.753 119.857C182.646 117.372 180.183 114.211 177.907 110.656H68.0466V183.84L184.753 119.857Z" fill="#F3BD00"/>
<path d="M197.8 70.8463L236.891 92.1484L197.8 113.451C197.8 113.451 184.77 102.547 184.77 92.1484C184.77 81.7497 197.8 70.8463 197.8 70.8463Z" fill="#F3BD00"/>
<path d="M329.138 139.053C320.593 139.053 313.927 136.66 309.139 131.872C304.412 127.084 302.049 120.479 302.049 112.055V62.3313H287.141V46.5142H302.322V22.6976L320.775 9.24401V46.5142H344.41V62.3313H320.775V108.874C320.775 113.722 321.775 117.206 323.775 119.327C325.775 121.388 328.653 122.418 332.411 122.418C336.047 122.418 340.016 121.448 344.319 119.509L344.41 136.508C342.592 137.175 340.289 137.75 337.501 138.235C334.713 138.781 331.926 139.053 329.138 139.053Z" fill="#242424"/>
<path d="M398.41 139.053C388.774 139.053 380.593 136.963 373.866 132.781C367.139 128.539 362.079 122.873 358.685 115.782C355.291 108.692 353.595 100.874 353.595 92.3293C353.595 83.9056 355.2 76.0879 358.412 68.8763C361.685 61.6041 366.563 55.7863 373.048 51.4229C379.593 46.999 387.532 44.787 396.864 44.787C406.621 44.787 414.56 47.0293 420.681 51.5139C426.862 55.9378 431.286 61.5435 433.953 68.3309C436.68 75.1183 438.043 82.1178 438.043 89.3295C438.043 91.0263 437.952 92.6929 437.771 94.3291C437.649 95.9654 437.498 97.1168 437.316 97.7834H373.411C374.26 105.419 376.744 111.358 380.865 115.6C385.047 119.843 390.925 121.964 398.501 121.964C403.167 121.964 407.379 121.176 411.136 119.6C414.954 118.024 418.56 115.388 421.954 111.692L434.862 123.054C429.832 128.509 424.347 132.539 418.408 135.145C412.53 137.75 405.864 139.053 398.41 139.053ZM419.499 84.148C419.62 82.1481 419.439 80.2392 418.954 78.4211C417.984 73.0881 415.56 68.7854 411.681 65.5129C407.803 62.2404 402.803 60.6041 396.683 60.6041C389.895 60.6041 384.562 62.7252 380.684 66.9673C376.866 71.2095 374.442 76.9364 373.411 84.148H419.499Z" fill="#242424"/>
<path d="M490.225 139.053C481.135 139.053 473.348 136.902 466.863 132.599C460.379 128.296 455.5 122.57 452.228 115.419C448.955 108.268 447.319 100.48 447.319 92.0565C447.319 83.8147 448.925 76.0879 452.137 68.8763C455.349 61.6647 460.167 55.8469 466.59 51.4229C473.075 46.999 480.893 44.787 490.043 44.787C498.952 44.787 506.739 46.999 513.405 51.4229C520.072 55.8469 525.071 62.3616 528.404 70.9671L510.587 77.8757C509.012 73.0275 506.406 69.149 502.77 66.2401C499.134 63.3312 494.892 61.8768 490.043 61.8768C484.71 61.8768 480.256 63.3009 476.681 66.1492C473.166 68.9369 470.56 72.6336 468.863 77.2394C467.227 81.7845 466.409 86.7236 466.409 92.0565C466.409 97.4501 467.227 102.419 468.863 106.965C470.56 111.51 473.166 115.146 476.681 117.873C480.256 120.6 484.71 121.964 490.043 121.964C494.952 121.964 499.194 120.539 502.77 117.691C506.406 114.843 508.951 111.025 510.406 106.237L527.495 112.691C524.526 120.994 519.769 127.478 513.224 132.145C506.679 136.75 499.013 139.053 490.225 139.053Z" fill="#242424"/>
<path d="M543.225 8.88039H562.315V58.6952C565.527 54.0894 569.496 50.6351 574.223 48.3323C578.95 45.9688 583.95 44.787 589.222 44.787C596.494 44.787 602.585 46.4839 607.494 49.8776C612.463 53.2713 616.129 57.7559 618.493 63.3312C620.856 68.9066 622.068 75.0577 622.129 81.7845V137.326H603.039V84.6025C603.039 77.5121 601.646 71.967 598.858 67.9673C596.07 63.9069 591.343 61.8768 584.677 61.8768C579.889 61.8768 575.799 63.0585 572.405 65.422C569.072 67.7855 566.557 71.058 564.86 75.2395C563.163 79.3604 562.315 84.0874 562.315 89.4204V137.326H543.225V8.88039Z" fill="#242424"/>
<path d="M644.586 46.5142H663.948V59.2406C666.917 54.5742 670.887 50.9987 675.856 48.5141C680.886 46.0294 686.28 44.787 692.037 44.787C700.036 44.787 706.975 46.9081 712.854 51.1502C718.732 55.3924 723.186 61.1193 726.216 68.3309C729.307 75.4819 730.852 83.3602 730.852 91.9656C730.852 100.571 729.307 108.48 726.216 115.691C723.186 122.842 718.702 128.539 712.763 132.781C706.884 136.963 699.885 139.053 691.764 139.053C686.007 139.053 680.674 137.841 675.765 135.417C670.857 132.933 666.917 129.327 663.948 124.6V174.96H644.586V46.5142ZM687.401 121.964C692.734 121.964 697.218 120.661 700.855 118.055C704.551 115.449 707.309 111.873 709.127 107.328C710.945 102.783 711.854 97.6622 711.854 91.9656C711.854 86.2085 710.945 81.0876 709.127 76.603C707.309 72.1185 704.551 68.6036 700.855 66.0583C697.218 63.4524 692.734 62.1495 687.401 62.1495C682.068 62.1495 677.492 63.4524 673.675 66.0583C669.917 68.6036 667.069 72.1185 665.13 76.603C663.19 81.0876 662.221 86.2085 662.221 91.9656C662.221 97.6622 663.19 102.783 665.13 107.328C667.069 111.873 669.917 115.449 673.675 118.055C677.492 120.661 682.068 121.964 687.401 121.964Z" fill="#242424"/>
<path d="M780.853 44.787C788.792 44.787 795.64 46.3324 801.397 49.4231C807.154 52.5138 811.548 56.8771 814.578 62.5131C817.608 68.0885 819.123 74.6032 819.123 82.0572V137.326H803.578L802.306 123.145C799.397 128.236 795.185 132.175 789.67 134.963C784.216 137.69 778.489 139.053 772.49 139.053C766.248 139.053 760.672 137.902 755.764 135.599C750.855 133.296 747.007 129.963 744.219 125.6C741.431 121.176 740.037 115.964 740.037 109.964C740.037 100.753 743.31 94.0867 749.855 89.9658C756.4 85.8448 765.369 83.7844 776.762 83.7844H802.033C801.912 78.3908 801.185 74.0881 799.851 70.8762C798.518 67.6037 796.337 65.1796 793.306 63.6039C790.337 62.0283 786.216 61.2405 780.944 61.2405C775.792 61.2405 771.278 62.4525 767.399 64.8766C763.581 67.3007 760.43 70.5732 757.945 74.6941L743.583 64.3312C748.188 57.968 753.461 53.1198 759.4 49.7867C765.399 46.4536 772.55 44.787 780.853 44.787ZM776.217 123.054C780.944 123.054 785.125 122.024 788.761 119.964C792.458 117.903 795.428 115.146 797.67 111.692C799.912 108.237 801.366 104.419 802.033 100.238V97.4198H777.853C771.793 97.4198 767.187 98.6319 764.036 101.056C760.884 103.419 759.309 106.571 759.309 110.51C759.309 114.328 760.763 117.388 763.672 119.691C766.581 121.933 770.762 123.054 776.217 123.054Z" fill="#242424"/>
<path d="M873.305 44.787C881.243 44.787 888.091 46.3324 893.849 49.4231C899.606 52.5138 903.999 56.8771 907.03 62.5131C910.06 68.0885 911.575 74.6032 911.575 82.0572V137.326H896.03L894.758 123.145C891.849 128.236 887.637 132.175 882.122 134.963C876.668 137.69 870.941 139.053 864.942 139.053C858.7 139.053 853.124 137.902 848.215 135.599C843.307 133.296 839.458 129.963 836.671 125.6C833.883 121.176 832.489 115.964 832.489 109.964C832.489 100.753 835.762 94.0867 842.307 89.9658C848.852 85.8448 857.821 83.7844 869.214 83.7844H894.485C894.364 78.3908 893.637 74.0881 892.303 70.8762C890.97 67.6037 888.788 65.1796 885.758 63.6039C882.789 62.0283 878.668 61.2405 873.396 61.2405C868.244 61.2405 863.73 62.4525 859.851 64.8766C856.033 67.3007 852.882 70.5732 850.397 74.6941L836.034 64.3312C840.64 57.968 845.913 53.1198 851.852 49.7867C857.851 46.4536 865.002 44.787 873.305 44.787ZM868.669 123.054C873.395 123.054 877.577 122.024 881.213 119.964C884.91 117.903 887.879 115.146 890.122 111.692C892.364 108.237 893.818 104.419 894.485 100.238V97.4198H870.305C864.245 97.4198 859.639 98.6319 856.488 101.056C853.336 103.419 851.761 106.571 851.761 110.51C851.761 114.328 853.215 117.388 856.124 119.691C859.033 121.933 863.214 123.054 868.669 123.054Z" fill="#242424"/>
<path d="M963.757 139.053C955.212 139.053 948.546 136.66 943.758 131.872C939.031 127.084 936.668 120.479 936.668 112.055V62.3313H921.759V46.5142H936.94V22.6976L955.394 9.24401V46.5142H979.028V62.3313H955.394V108.874C955.394 113.722 956.393 117.206 958.393 119.327C960.393 121.388 963.272 122.418 967.029 122.418C970.665 122.418 974.635 121.448 978.937 119.509L979.028 136.508C977.21 137.175 974.907 137.75 972.12 138.235C969.332 138.781 966.544 139.053 963.757 139.053Z" fill="#242424"/>
<path d="M993.304 8.88039H1012.39V58.6952C1015.61 54.0894 1019.57 50.6351 1024.3 48.3323C1029.03 45.9688 1034.03 44.787 1039.3 44.787C1046.57 44.787 1052.66 46.4839 1057.57 49.8776C1062.54 53.2713 1066.21 57.7559 1068.57 63.3312C1070.93 68.9066 1072.15 75.0577 1072.21 81.7845V137.326H1053.12V84.6025C1053.12 77.5121 1051.72 71.967 1048.94 67.9673C1046.15 63.9069 1041.42 61.8768 1034.76 61.8768C1029.97 61.8768 1025.88 63.0585 1022.48 65.422C1019.15 67.7855 1016.64 71.058 1014.94 75.2395C1013.24 79.3604 1012.39 84.0874 1012.39 89.4204V137.326H993.304V8.88039Z" fill="#242424"/>
<path d="M1121.66 139.053C1115.6 139.053 1109.97 137.963 1104.75 135.781C1099.6 133.539 1095.21 130.539 1091.57 126.781C1088 122.964 1085.45 118.721 1083.94 114.055L1099.03 107.419C1100.66 111.904 1103.24 115.691 1106.75 118.782C1110.27 121.812 1114.94 123.327 1120.75 123.327C1124.39 123.327 1127.45 122.721 1129.93 121.509C1132.48 120.297 1134.39 118.721 1135.66 116.782C1136.93 114.843 1137.57 112.782 1137.57 110.601C1137.57 108.116 1136.75 106.116 1135.12 104.601C1133.48 103.025 1131.42 101.783 1128.93 100.874C1126.45 99.9651 1123 98.9349 1118.57 97.7834C1112.45 96.2078 1107.45 94.6321 1103.57 93.0565C1099.75 91.4202 1096.45 88.9355 1093.66 85.6024C1090.94 82.2087 1089.57 77.6636 1089.57 71.967C1089.57 66.1492 1091.06 61.2102 1094.03 57.1498C1097 53.0289 1100.97 49.9382 1105.94 47.8777C1110.91 45.8173 1116.39 44.787 1122.39 44.787C1129.9 44.787 1136.54 46.4839 1142.3 49.8776C1148.05 53.2713 1152.63 58.0589 1156.02 64.2403L1141.48 72.1488C1136.93 63.8463 1130.36 59.6951 1121.75 59.6951C1117.45 59.6951 1114 60.6344 1111.39 62.5131C1108.84 64.3312 1107.57 66.6643 1107.57 69.5126C1107.57 71.6337 1108.33 73.4215 1109.84 74.8759C1111.42 76.2697 1113.39 77.4212 1115.75 78.3302C1118.12 79.1786 1121.36 80.1786 1125.48 81.33C1131.84 83.0875 1137.06 84.8752 1141.12 86.6933C1145.18 88.4507 1148.66 91.1778 1151.57 94.8745C1154.54 98.5712 1156.02 103.51 1156.02 109.692C1156.02 116.116 1154.42 121.539 1151.21 125.963C1147.99 130.327 1143.78 133.599 1138.57 135.781C1133.36 137.963 1127.72 139.053 1121.66 139.053Z" fill="#242424"/>
<path d="M1174.21 8.88039H1193.3V58.6952C1196.51 54.0894 1200.48 50.6351 1205.21 48.3323C1209.93 45.9688 1214.93 44.787 1220.2 44.787C1227.48 44.787 1233.57 46.4839 1238.48 49.8776C1243.45 53.2713 1247.11 57.7559 1249.48 63.3312C1251.84 68.9066 1253.05 75.0577 1253.11 81.7845V137.326H1234.02V84.6025C1234.02 77.5121 1232.63 71.967 1229.84 67.9673C1227.05 63.9069 1222.33 61.8768 1215.66 61.8768C1210.87 61.8768 1206.78 63.0585 1203.39 65.422C1200.05 67.7855 1197.54 71.058 1195.84 75.2395C1194.15 79.3604 1193.3 84.0874 1193.3 89.4204V137.326H1174.21V8.88039Z" fill="#242424"/>
<path d="M1307.93 44.787C1315.87 44.787 1322.72 46.3324 1328.47 49.4231C1334.23 52.5138 1338.62 56.8771 1341.65 62.5131C1344.68 68.0885 1346.2 74.6032 1346.2 82.0572V137.326H1330.66L1329.38 123.145C1326.47 128.236 1322.26 132.175 1316.75 134.963C1311.29 137.69 1305.57 139.053 1299.57 139.053C1293.32 139.053 1287.75 137.902 1282.84 135.599C1277.93 133.296 1274.08 129.963 1271.3 125.6C1268.51 121.176 1267.11 115.964 1267.11 109.964C1267.11 100.753 1270.39 94.0867 1276.93 89.9658C1283.48 85.8448 1292.45 83.7844 1303.84 83.7844H1329.11C1328.99 78.3908 1328.26 74.0881 1326.93 70.8762C1325.6 67.6037 1323.41 65.1796 1320.38 63.6039C1317.41 62.0283 1313.29 61.2405 1308.02 61.2405C1302.87 61.2405 1298.35 62.4525 1294.48 64.8766C1290.66 67.3007 1287.51 70.5732 1285.02 74.6941L1270.66 64.3312C1275.27 57.968 1280.54 53.1198 1286.48 49.7867C1292.48 46.4536 1299.63 44.787 1307.93 44.787ZM1303.29 123.054C1308.02 123.054 1312.2 122.024 1315.84 119.964C1319.53 117.903 1322.5 115.146 1324.75 111.692C1326.99 108.237 1328.44 104.419 1329.11 100.238V97.4198H1304.93C1298.87 97.4198 1294.26 98.6319 1291.11 101.056C1287.96 103.419 1286.39 106.571 1286.39 110.51C1286.39 114.328 1287.84 117.388 1290.75 119.691C1293.66 121.933 1297.84 123.054 1303.29 123.054Z" fill="#242424"/>
<path d="M1386.11 139.053C1380.17 139.053 1375.63 137.508 1372.47 134.417C1369.38 131.266 1367.84 126.085 1367.84 118.873V8.88039H1386.56V113.782C1386.56 116.509 1387.2 118.6 1388.47 120.055C1389.75 121.448 1391.84 122.145 1394.75 122.145C1396.26 122.145 1398.44 121.933 1401.29 121.509L1401.38 137.326C1395.75 138.478 1390.65 139.053 1386.11 139.053Z" fill="#242424"/>
<path d="M1448.11 44.787C1456.05 44.787 1462.9 46.3324 1468.65 49.4231C1474.41 52.5138 1478.8 56.8771 1481.83 62.5131C1484.86 68.0885 1486.38 74.6032 1486.38 82.0572V137.326H1470.83L1469.56 123.145C1466.65 128.236 1462.44 132.175 1456.93 134.963C1451.47 137.69 1445.75 139.053 1439.75 139.053C1433.5 139.053 1427.93 137.902 1423.02 135.599C1418.11 133.296 1414.26 129.963 1411.48 125.6C1408.69 121.176 1407.29 115.964 1407.29 109.964C1407.29 100.753 1410.57 94.0867 1417.11 89.9658C1423.66 85.8448 1432.63 83.7844 1444.02 83.7844H1469.29C1469.17 78.3908 1468.44 74.0881 1467.11 70.8762C1465.77 67.6037 1463.59 65.1796 1460.56 63.6039C1457.59 62.0283 1453.47 61.2405 1448.2 61.2405C1443.05 61.2405 1438.53 62.4525 1434.66 64.8766C1430.84 67.3007 1427.69 70.5732 1425.2 74.6941L1410.84 64.3312C1415.44 57.968 1420.72 53.1198 1426.66 49.7867C1432.66 46.4536 1439.81 44.787 1448.11 44.787ZM1443.47 123.054C1448.2 123.054 1452.38 122.024 1456.02 119.964C1459.71 117.903 1462.68 115.146 1464.93 111.692C1467.17 108.237 1468.62 104.419 1469.29 100.238V97.4198H1445.11C1439.05 97.4198 1434.44 98.6319 1431.29 101.056C1428.14 103.419 1426.57 106.571 1426.57 110.51C1426.57 114.328 1428.02 117.388 1430.93 119.691C1433.84 121.933 1438.02 123.054 1443.47 123.054Z" fill="#242424"/>
<path d="M1501.89 131.912C1501.89 129.756 1502.27 127.749 1503.01 125.891C1503.83 123.958 1504.91 122.286 1506.26 120.874C1507.67 119.461 1509.32 118.346 1511.18 117.529C1513.12 116.711 1515.17 116.302 1517.33 116.302C1519.5 116.302 1521.51 116.711 1523.38 117.529C1525.32 118.346 1527 119.461 1528.41 120.874C1529.83 122.286 1530.95 123.958 1531.77 125.891C1532.59 127.749 1533 129.756 1533 131.912C1533 134.141 1532.59 136.186 1531.77 138.044C1530.95 139.902 1529.83 141.537 1528.41 142.949C1527 144.362 1525.32 145.44 1523.38 146.183C1521.51 147 1519.5 147.409 1517.33 147.409C1515.17 147.409 1513.12 147 1511.18 146.183C1509.32 145.44 1507.67 144.362 1506.26 142.949C1504.91 141.537 1503.83 139.902 1503.01 138.044C1502.27 136.186 1501.89 134.141 1501.89 131.912Z" fill="#F3BD00"/>
</svg>
